<?xml version="1.0" encoding="utf-8"?>
<!-- Generator: Adobe Illustrator 19.0.1, SVG Export Plug-In . SVG Version: 6.00 Build 0)  -->
<svg version="1.1" id="Слой_1" xmlns="http://www.w3.org/2000/svg" xmlns:xlink="http://www.w3.org/1999/xlink" x="0px" y="0px"
	 viewBox="-287 410.9 20 20" style="enable-background:new -287 410.9 20 20;" xml:space="preserve">
<path d="M-287,416.9c0-1.1,0.9-2,2-2h3l2-2h6l2,2h3c1.1,0,2,0.9,2,2v10c0,1.1-0.9,2-2,2h-16c-1.1,0-2-0.9-2-2V416.9z M-277,426.9
	c2.8,0,5-2.2,5-5c0-2.8-2.2-5-5-5s-5,2.2-5,5C-282,424.7-279.8,426.9-277,426.9z M-277,424.9c-1.7,0-3-1.3-3-3c0-1.7,1.3-3,3-3
	s3,1.3,3,3C-274,423.5-275.3,424.9-277,424.9z"/>
</svg>
