<?xml version="1.0" encoding="utf-8"?>
<!-- Generator: Adobe Illustrator 19.0.1, SVG Export Plug-In . SVG Version: 6.00 Build 0)  -->
<svg version="1.1" id="Слой_1" xmlns="http://www.w3.org/2000/svg" xmlns:xlink="http://www.w3.org/1999/xlink" x="0px" y="0px"
	 viewBox="-287 410.9 20 20" style="enable-background:new -287 410.9 20 20;" xml:space="preserve">
<path d="M-267,420.9c0,5.5-4.5,10-10,10s-10-4.5-10-10c0-5.5,4.5-10,10-10S-267,415.4-267,420.9z M-277,412.9c-4.4,0-8,3.6-8,8
	c0,4.4,3.6,8,8,8s8-3.6,8-8C-269,416.5-272.6,412.9-277,412.9z M-277.7,423.4l-3.5-3.5l1.4-1.4l2.8,2.8l2.8-2.8l1.4,1.4l-4.2,4.2
	L-277.7,423.4z"/>
</svg>
