<?xml version="1.0" encoding="utf-8"?>
<!-- Generator: Adobe Illustrator 19.0.1, SVG Export Plug-In . SVG Version: 6.00 Build 0)  -->
<svg version="1.1" id="Слой_1" xmlns="http://www.w3.org/2000/svg" xmlns:xlink="http://www.w3.org/1999/xlink" x="0px" y="0px"
	 viewBox="-287 410.9 20 20" style="enable-background:new -287 410.9 20 20;" xml:space="preserve">
<path d="M-277,410.9c5.5,0,10,4.5,10,10c0,5.5-4.5,10-10,10s-10-4.5-10-10C-287,415.4-282.5,410.9-277,410.9z M-285,420.9
	c0,4.4,3.6,8,8,8s8-3.6,8-8c0-4.4-3.6-8-8-8S-285,416.5-285,420.9z M-274.5,421.6l-3.5,3.6l-1.4-1.4l2.8-2.8l-2.8-2.8l1.4-1.4
	l4.2,4.2L-274.5,421.6z"/>
</svg>
