<?xml version="1.0" encoding="utf-8"?>
<!-- Generator: Adobe Illustrator 19.0.1, SVG Export Plug-In . SVG Version: 6.00 Build 0)  -->
<svg version="1.1" id="Слой_1" xmlns="http://www.w3.org/2000/svg" xmlns:xlink="http://www.w3.org/1999/xlink" x="0px" y="0px"
	 viewBox="-287 410.9 20 20" style="enable-background:new -287 410.9 20 20;" xml:space="preserve">
<style type="text/css">
	.st0{fill:#FFFFFF;}
</style>
<path class="st0" d="M-287,420.9c0-5.5,4.5-10,10-10s10,4.5,10,10c0,5.5-4.5,10-10,10S-287,426.4-287,420.9z M-277,428.9
	c4.4,0,8-3.6,8-8c0-4.4-3.6-8-8-8s-8,3.6-8,8C-285,425.3-281.4,428.9-277,428.9z M-276.3,418.4l3.5,3.5l-1.4,1.4l-2.8-2.8l-2.8,2.8
	l-1.4-1.4l4.2-4.2L-276.3,418.4z"/>
</svg>
