<?xml version="1.0" encoding="utf-8"?>
<!-- Generator: Adobe Illustrator 19.0.1, SVG Export Plug-In . SVG Version: 6.00 Build 0)  -->
<svg version="1.1" id="Слой_1" xmlns="http://www.w3.org/2000/svg" xmlns:xlink="http://www.w3.org/1999/xlink" x="0px" y="0px"
	 viewBox="-287 410.9 20 20" style="enable-background:new -287 410.9 20 20;" xml:space="preserve">
<path d="M-277,430.9c-5.5,0-10-4.5-10-10c0-5.5,4.5-10,10-10s10,4.5,10,10C-267,426.4-271.5,430.9-277,430.9z M-269,420.9
	c0-4.4-3.6-8-8-8s-8,3.6-8,8c0,4.4,3.6,8,8,8S-269,425.3-269,420.9z M-279.5,420.2l3.5-3.5l1.4,1.4l-2.8,2.8l2.8,2.8l-1.4,1.4
	l-4.2-4.2L-279.5,420.2z"/>
</svg>
