<?xml version="1.0" encoding="utf-8"?>
<!-- Generator: Adobe Illustrator 19.0.1, SVG Export Plug-In . SVG Version: 6.00 Build 0)  -->
<svg version="1.1" id="Слой_1" xmlns="http://www.w3.org/2000/svg" xmlns:xlink="http://www.w3.org/1999/xlink" x="0px" y="0px"
	 viewBox="-287 410.9 20 20" style="enable-background:new -287 410.9 20 20;" xml:space="preserve">
<path d="M-284.1,428c-4-3.8-4.1-10.2-0.2-14.1c3.8-4,10.2-4.1,14.1-0.2c0.1,0.1,0.2,0.2,0.2,0.2c3.8,4,3.7,10.3-0.2,14.1
	C-274.1,431.7-280.2,431.7-284.1,428z M-275.6,420.9l2.8-2.8l-1.4-1.4l-2.8,2.8l-2.8-2.8l-1.4,1.4l2.8,2.8l-2.8,2.8l1.4,1.4l2.8-2.8
	l2.8,2.8l1.4-1.4L-275.6,420.9L-275.6,420.9z"/>
</svg>
