<?xml version="1.0" encoding="utf-8"?>
<!-- Generator: Adobe Illustrator 19.0.1, SVG Export Plug-In . SVG Version: 6.00 Build 0)  -->
<svg version="1.1" id="Слой_1" xmlns="http://www.w3.org/2000/svg" xmlns:xlink="http://www.w3.org/1999/xlink" x="0px" y="0px"
	 viewBox="-287 410.9 20 20" style="enable-background:new -287 410.9 20 20;" xml:space="preserve">
<style type="text/css">
	.st0{fill:#FFFFFF;}
</style>
<path class="st0" d="M-283.1,417.4l-1.7-2.9l1.4-1.4l2.9,1.7c0.5-0.3,1.1-0.5,1.7-0.7l0.8-3.2h2l0.8,3.2c0.6,0.2,1.2,0.4,1.7,0.7
	l2.9-1.7l1.4,1.4l-1.7,2.9c0.3,0.5,0.5,1.1,0.7,1.7l3.2,0.8v2l-3.2,0.8c-0.2,0.6-0.4,1.2-0.7,1.7l1.7,2.9l-1.4,1.4l-2.9-1.7
	c-0.5,0.3-1.1,0.5-1.7,0.7l-0.8,3.2h-2l-0.8-3.2c-0.6-0.2-1.2-0.4-1.7-0.7l-2.9,1.7l-1.4-1.4l1.7-2.9c-0.3-0.5-0.5-1.1-0.7-1.7
	l-3.2-0.8v-2l3.2-0.8C-283.6,418.5-283.4,417.9-283.1,417.4z M-277,423.9c1.7,0,3-1.3,3-3c0-1.7-1.3-3-3-3s-3,1.3-3,3
	C-280,422.5-278.7,423.9-277,423.9z"/>
</svg>
