<?xml version="1.0" encoding="utf-8"?>
<!-- Generator: Adobe Illustrator 19.0.1, SVG Export Plug-In . SVG Version: 6.00 Build 0)  -->
<svg version="1.1" id="Слой_1" xmlns="http://www.w3.org/2000/svg" xmlns:xlink="http://www.w3.org/1999/xlink" x="0px" y="0px"
	 viewBox="-287 410.9 20 20" style="enable-background:new -287 410.9 20 20;" xml:space="preserve">
<style type="text/css">
	.st0{fill:#FFFFFF;}
</style>
<path class="st0" d="M-284.1,428c-4-3.8-4.1-10.2-0.2-14.1c3.8-4,10.2-4.1,14.1-0.2c0.1,0.1,0.2,0.2,0.2,0.2
	c3.8,4,3.7,10.3-0.2,14.1C-274.1,431.7-280.2,431.7-284.1,428z M-271.3,426.5c3.1-3.1,3.1-8.2,0-11.3c-3.1-3.1-8.2-3.1-11.3,0
	c-3.1,3.1-3.1,8.2,0,11.3C-279.5,429.7-274.5,429.7-271.3,426.5z M-278,421.9v-2h2v6h-2V421.9z M-278,415.9h2v2h-2V415.9z"/>
</svg>
