<?xml version="1.0" encoding="utf-8"?>
<!-- Generator: Adobe Illustrator 19.0.1, SVG Export Plug-In . SVG Version: 6.00 Build 0)  -->
<svg version="1.1" id="Слой_1" xmlns="http://www.w3.org/2000/svg" xmlns:xlink="http://www.w3.org/1999/xlink" x="0px" y="0px"
	 viewBox="-287 410.9 20 20" style="enable-background:new -287 410.9 20 20;" xml:space="preserve">
<path d="M-274.7,422.6l-2.3,2.3h-2v2h-2v2l-2,2h-4v-4l8.3-8.3c-1-3.2,0.8-6.5,4-7.5c3.2-1,6.5,0.8,7.5,4c1,3.2-0.8,6.5-4,7.5
	C-272.4,423-273.6,423-274.7,422.6z M-269.9,418c1.2-1.2,1.2-3.1,0-4.2c-0.6-0.6-1.3-0.9-2.1-0.9c-0.8,0-1.6,0.3-2.1,0.9
	C-274.1,413.8-269.9,418-269.9,418z"/>
</svg>
