<?xml version="1.0" encoding="utf-8"?>
<!-- Generator: Adobe Illustrator 19.0.1, SVG Export Plug-In . SVG Version: 6.00 Build 0)  -->
<svg version="1.1" id="Слой_1" xmlns="http://www.w3.org/2000/svg" xmlns:xlink="http://www.w3.org/1999/xlink" x="0px" y="0px"
	 viewBox="-287 410.9 20 20" style="enable-background:new -287 410.9 20 20;" xml:space="preserve">
<path d="M-283,418.9v-2c0-3.3,2.7-6,6-6s6,2.7,6,6h-3v2h4c1.1,0,2,0.9,2,2v8c0,1.1-0.9,2-2,2h-14c-1.1,0-2-0.9-2-2v-8
	c0-1.1,0.9-2,2-2H-283z M-278,425.6v2.3h2v-2.3c1-0.6,1.3-1.8,0.7-2.7c-0.6-1-1.8-1.3-2.7-0.7c-1,0.6-1.3,1.8-0.7,2.7
	C-278.6,425.2-278.3,425.4-278,425.6z M-280,416.9v2h6v-2c0-1.7-1.3-3-3-3S-280,415.2-280,416.9z"/>
</svg>
