<?xml version="1.0" encoding="utf-8"?>
<!-- Generator: Adobe Illustrator 19.0.1, SVG Export Plug-In . SVG Version: 6.00 Build 0)  -->
<svg version="1.1" id="Слой_1" xmlns="http://www.w3.org/2000/svg" xmlns:xlink="http://www.w3.org/1999/xlink" x="0px" y="0px"
	 viewBox="-287 410.9 20 20" style="enable-background:new -287 410.9 20 20;" xml:space="preserve">
<path d="M-283,422.9c-1.1,0-2-0.9-2-2c0-1.1,0.9-2,2-2s2,0.9,2,2C-281,422-281.9,422.9-283,422.9z M-277,422.9c-1.1,0-2-0.9-2-2
	c0-1.1,0.9-2,2-2s2,0.9,2,2C-275,422-275.9,422.9-277,422.9z M-271,422.9c-1.1,0-2-0.9-2-2c0-1.1,0.9-2,2-2s2,0.9,2,2
	C-269,422-269.9,422.9-271,422.9z"/>
</svg>
