<?xml version="1.0" encoding="utf-8"?>
<!-- Generator: Adobe Illustrator 19.0.1, SVG Export Plug-In . SVG Version: 6.00 Build 0)  -->
<svg version="1.1" id="Слой_1" xmlns="http://www.w3.org/2000/svg" xmlns:xlink="http://www.w3.org/1999/xlink" x="0px" y="0px"
	 viewBox="-287 410.9 20 20" style="enable-background:new -287 410.9 20 20;" xml:space="preserve">
<style type="text/css">
	.st0{fill:#FFFFFF;}
</style>
<path class="st0" d="M-281,418.9v7h8v-7c0-2.2-1.8-4-4-4S-281,416.7-281,418.9z M-279,413.2c-0.2-1.1,0.6-2.1,1.7-2.3
	s2.1,0.6,2.3,1.7c0,0.2,0,0.4,0,0.6c2.4,0.8,4,3.1,4,5.7v6l3,2v1h-18v-1l3-2v-6C-283,416.3-281.4,414.1-279,413.2z M-275,428.9
	c0,1.1-0.9,2-2,2s-2-0.9-2-2H-275z"/>
</svg>
