<?xml version="1.0" encoding="utf-8"?>
<!-- Generator: Adobe Illustrator 19.0.1, SVG Export Plug-In . SVG Version: 6.00 Build 0)  -->
<svg version="1.1" id="Слой_1" xmlns="http://www.w3.org/2000/svg" xmlns:xlink="http://www.w3.org/1999/xlink" x="0px" y="0px"
	 viewBox="-287 410.9 20 20" style="enable-background:new -287 410.9 20 20;" xml:space="preserve">
<style type="text/css">
	.st0{fill:#FFFFFF;}
</style>
<path class="st0" d="M-277,430.9c-5.5,0-10-4.5-10-10c0-5.5,4.5-10,10-10s10,4.5,10,10C-267,426.4-271.5,430.9-277,430.9z
	 M-275,417.9c0,0.3-0.2,0.8-0.4,1l-1.6,1.6c-0.6,0.6-1,1.6-1,2.4v1h2v-1c0-0.3,0.2-0.8,0.4-1l1.6-1.6c0.6-0.6,1-1.6,1-2.4
	c0-2.2-1.8-4-4-4s-4,1.8-4,4h2c0-1.1,0.9-2,2-2S-275,416.8-275,417.9z M-278,425.9v2h2v-2H-278z"/>
</svg>
