<?xml version="1.0" encoding="utf-8"?>
<!-- Generator: Adobe Illustrator 19.0.1, SVG Export Plug-In . SVG Version: 6.00 Build 0)  -->
<svg version="1.1" id="Слой_1" xmlns="http://www.w3.org/2000/svg" xmlns:xlink="http://www.w3.org/1999/xlink" x="0px" y="0px"
	 viewBox="-287 410.9 20 20" style="enable-background:new -287 410.9 20 20;" xml:space="preserve">
<style type="text/css">
	.st0{fill:#FFFFFF;}
</style>
<path class="st0" d="M-283,412.9h16l-3,9h-13c-0.6,0-1,0.4-1,1c0,0.6,0.4,1,1,1h13v2h-13c-1.7,0-3-1.3-3-3c0-1.7,1.3-3,3-3h0.3
	l-1.3-4l-1-3h-2v-2h3c0.6,0,1,0.4,1,1V412.9z M-282,430.9c-1.1,0-2-0.9-2-2c0-1.1,0.9-2,2-2s2,0.9,2,2
	C-280,430-280.9,430.9-282,430.9z M-272,430.9c-1.1,0-2-0.9-2-2c0-1.1,0.9-2,2-2s2,0.9,2,2C-270,430-270.9,430.9-272,430.9z"/>
</svg>
