<?xml version="1.0" encoding="utf-8"?>
<!-- Generator: Adobe Illustrator 19.0.1, SVG Export Plug-In . SVG Version: 6.00 Build 0)  -->
<svg version="1.1" id="Слой_1" xmlns="http://www.w3.org/2000/svg" xmlns:xlink="http://www.w3.org/1999/xlink" x="0px" y="0px"
	 viewBox="-287 410.9 20 20" style="enable-background:new -287 410.9 20 20;" xml:space="preserve">
<path d="M-279.6,419.9l2.2,2.2l-0.8,2l-2.8-2.8l-3.3,3.3l-1.4-1.4l3.3-3.3l-0.9-0.9c-0.5-0.5-1-1.3-1.3-2.1h2.2
	c0.1,0.3,0.3,0.5,0.5,0.7l0.9,0.9l0.9-0.9c0.6-0.6,1.1-1.9,1.1-2.7h-8v-2h5v-2h2v2h5v2h-2c0,1.4-0.7,3.1-1.7,4.1L-279.6,419.9
	L-279.6,419.9z M-275.8,427.9l-1.3,3h-2l5-12h2l5,12h-2l-1.3-3H-275.8z M-274.9,425.9h3.8l-1.9-4.6L-274.9,425.9z"/>
</svg>
