<?xml version="1.0" encoding="utf-8"?>
<!-- Generator: Adobe Illustrator 19.0.1, SVG Export Plug-In . SVG Version: 6.00 Build 0)  -->
<svg version="1.1" id="Слой_1" xmlns="http://www.w3.org/2000/svg" xmlns:xlink="http://www.w3.org/1999/xlink" x="0px" y="0px"
	 viewBox="-287 410.9 20 20" style="enable-background:new -287 410.9 20 20;" xml:space="preserve">
<path d="M-287,412.9c0-1.1,0.9-2,2-2h16c1.1,0,2,0.9,2,2v16c0,1.1-0.9,2-2,2h-16c-1.1,0-2-0.9-2-2V412.9z M-280,416.9v2
	c0,1.7,1.3,3,3,3s3-1.3,3-3v-2c0-1.7-1.3-3-3-3S-280,415.2-280,416.9z M-269,426c-2.4-1.4-5.2-2.1-8-2.1c-2.9,0-5.6,0.8-8,2.1v2.9
	h16V426z"/>
</svg>
