<?xml version="1.0" encoding="utf-8"?>
<!-- Generator: Adobe Illustrator 19.0.1, SVG Export Plug-In . SVG Version: 6.00 Build 0)  -->
<svg version="1.1" id="Слой_1" xmlns="http://www.w3.org/2000/svg" xmlns:xlink="http://www.w3.org/1999/xlink" x="0px" y="0px"
	 viewBox="-287 410.9 20 20" style="enable-background:new -287 410.9 20 20;" xml:space="preserve">
<path d="M-280,418.9c-2.2,0-4-1.8-4-4c0-2.2,1.8-4,4-4s4,1.8,4,4C-276,417.1-277.8,418.9-280,418.9z M-280,419.9
	c2.1,0,4.2,0.4,6.1,1.1l-1.1,5.9h-1.3l-0.8,4h-6l-0.8-4h-1.3l-1.1-5.9C-284.1,420.3-282.1,419.9-280,419.9z M-271.7,420.1
	c1.3,0.2,2.6,0.5,3.8,0.9l-1.1,5.9h-1.3l-0.8,4h-4l0.4-2h1.3C-273.3,428.9-271.7,420.1-271.7,420.1z M-274,410.9c2.2,0,4,1.8,4,4
	c0,2.2-1.8,4-4,4c-0.5,0-1-0.1-1.4-0.2c1.8-2.2,1.8-5.3,0-7.5C-274.9,411-274.5,410.9-274,410.9z"/>
</svg>
