<?xml version="1.0" encoding="utf-8"?>
<!-- Generator: Adobe Illustrator 19.0.1, SVG Export Plug-In . SVG Version: 6.00 Build 0)  -->
<svg version="1.1" id="Слой_1" xmlns="http://www.w3.org/2000/svg" xmlns:xlink="http://www.w3.org/1999/xlink" x="0px" y="0px"
	 viewBox="-287 410.9 20 20" style="enable-background:new -287 410.9 20 20;" xml:space="preserve">
<style type="text/css">
	.st0{fill:#FFFFFF;}
</style>
<path class="st0" d="M-286.8,420.9c2.8-5.4,9.4-7.6,14.8-4.8c2.1,1.1,3.7,2.7,4.8,4.8c-2.8,5.4-9.4,7.6-14.8,4.8
	C-284.1,424.6-285.7,423-286.8,420.9z M-277,424.9c2.2,0,4-1.8,4-4c0-2.2-1.8-4-4-4s-4,1.8-4,4C-281,423.1-279.2,424.9-277,424.9z
	 M-277,422.9c-1.1,0-2-0.9-2-2c0-1.1,0.9-2,2-2s2,0.9,2,2C-275,422-275.9,422.9-277,422.9z"/>
</svg>
