<?xml version="1.0" encoding="utf-8"?>
<!-- Generator: Adobe Illustrator 19.0.1, SVG Export Plug-In . SVG Version: 6.00 Build 0)  -->
<svg version="1.1" id="Слой_1" xmlns="http://www.w3.org/2000/svg" xmlns:xlink="http://www.w3.org/1999/xlink" x="0px" y="0px"
	 viewBox="-287 410.9 20 20" style="enable-background:new -287 410.9 20 20;" xml:space="preserve">
<style type="text/css">
	.st0{fill:#FFFFFF;}
</style>
<path class="st0" d="M-274.2,415.3l-1.8,1.8c-2.1-0.6-4.3,0.7-4.9,2.8c-0.2,0.7-0.2,1.4,0,2.1l-2.8,2.8c-1.3-1-2.4-2.3-3.2-3.8
	C-284.4,416.3-279.2,413.9-274.2,415.3L-274.2,415.3z M-270.4,417.1c1.3,1,2.4,2.3,3.2,3.8c-2.4,4.6-7.6,7-12.6,5.6l1.8-1.8
	c2.1,0.6,4.3-0.7,4.9-2.8c0.2-0.7,0.2-1.4,0-2.1L-270.4,417.1L-270.4,417.1z M-270.6,413.1l1.4,1.4l-14.1,14.1l-1.4-1.4
	L-270.6,413.1z"/>
</svg>
